<svg xmlns="http://www.w3.org/2000/svg" xmlns:svg="http://www.w3.org/2000/svg" xmlns:xlink="http://www.w3.org/1999/xlink" id="svg2" width="450" height="50" version="1.1" xml:space="preserve"><metadata id="metadata8"/><defs id="defs6"><linearGradient id="linearGradient3802"><stop style="stop-color:#000;stop-opacity:1" id="stop3804" offset="0"/><stop style="stop-color:#000;stop-opacity:0" id="stop3806" offset="1"/></linearGradient><clipPath id="clipPath18"><path id="path20" d="m 0,0 3395,0 0,416.656 -3395,0 L 0,0 Z"/></clipPath><linearGradient id="linearGradient3808" x1="512.751" x2="512.775" y1="324.374" y2="342.39" gradientTransform="matrix(1.0237506,0,0,0.53460306,-6.2976785,167.92204)" gradientUnits="userSpaceOnUse" xlink:href="#linearGradient3802"/></defs><g id="layer1" transform="translate(-369.18658,-252.12171)" style="display:inline"><g id="g14" transform="matrix(0.08566111,0,0,-0.08566111,380.99335,294.7253)"><g id="g16" clip-path="url(#clipPath18)"><path id="path22" d="m 0,0 0,416.387 27.7422,0 260.9688,-260.957 0,260.957 83.281,0 L 371.992,0 341.461,0 83.2773,258.16 83.2773,0 0,0" style="fill:#231f20;fill-opacity:1;fill-rule:nonzero;stroke:none"/><path id="path24" d="m 899.594,0 0,416.129 -305.926,0.258 0,-77.735 222.644,0 0,-88.824 -126.847,0 0,-77.457 126.847,0 0,-94.6562 -222.093,0 0,-77.7148 305.375,0" style="fill:#231f20;fill-opacity:1;fill-rule:nonzero;stroke:none"/><path id="path26" d="m 2044.73,416.387 0,-77.735 -138.79,0 0,-338.652 -83.28,0 0,338.652 -138.79,0 0,77.735 360.86,0" style="fill:#231f20;fill-opacity:1;fill-rule:nonzero;stroke:none"/><path id="path28" d="m 2280.41,59.8008 c -39.86,39.6914 -59.8,89.4182 -59.8,149.2072 0.19,58.488 20.17,107.656 59.96,147.551 39.78,39.89 89.12,59.828 147.98,59.828 59.38,0 110.4,-18.5 152.95,-55.543 l -55.52,-60.782 c -28.34,22.227 -60.78,33.325 -97.43,33.325 -37.42,-0.18 -67.51,-11.84 -90.39,-34.989 -22.87,-23.121 -34.29,-52.738 -34.29,-88.8 0.21,-38.703 11.77,-69.418 34.7,-92.2 22.97,-22.7535 53.15,-34.1324 90.49,-34.1324 30.02,0 53.07,5.9141 69.16,17.7694 l 0,71.336 -55.54,-0.273 0,77.73 138.82,0 0,-194.3241 C 2539.12,18.4727 2488.11,0 2428.55,0 2369.69,0.15625 2320.31,20.1172 2280.41,59.8008" style="fill:#176fc1;fill-opacity:1;fill-rule:nonzero;stroke:none"/><path id="path30" d="m 2801.76,0 83.0273,0 0,416.656 -83.0273,0 0,-416.656 z" style="fill:#176fc1;fill-opacity:1;fill-rule:nonzero;stroke:none"/><path id="path32" d="m 3330.21,402.516 c 21.29,-9.258 41.18,-23.133 59.67,-41.672 l -55.49,-55.5 c -18.53,22.234 -44.41,33.308 -77.75,33.308 -33.32,0 -54.61,-7.843 -63.87,-23.574 -9.25,-15.738 -9.25,-29.18 0,-40.25 9.26,-11.129 30.55,-19.461 63.87,-25 35.14,-3.711 67.11,-15.269 95.78,-34.699 28.67,-19.43 43.05,-50.445 43.05,-92.981 0,-33.3394 -15.35,-62.0113 -45.98,-86.0738 C 3318.87,12.0039 3283.2,0 3242.46,0 c -38.65,0 -70.96,5.53125 -96.83,16.625 -25.94,11.1094 -48.13,25.9102 -66.67,44.4492 l 55.53,55.5038 c 18.5,-22.2342 49.96,-35.16 94.42,-38.8632 37.01,0 60.09,7.8555 69.22,23.5942 9.17,15.734 9.17,31.464 0,47.214 -9.13,15.696 -32.21,25.422 -69.22,29.129 -33.34,3.711 -63.87,13.871 -91.62,30.532 -27.8,16.652 -41.66,45.347 -41.66,86.054 0,36.84 15.78,66.391 47.32,88.696 31.56,22.316 64.02,33.453 97.3,33.453 38.68,0 68.7,-4.625 89.96,-13.871" style="fill:#176fc1;fill-opacity:1;fill-rule:nonzero;stroke:none"/><path id="path34" d="m 1383.04,254.805 118,161.582 -97.73,0 -69.37,-94.563 49.1,-67.019" style="fill:#231f20;fill-opacity:1;fill-rule:nonzero;stroke:none"/><path id="path36" d="M 1355.32,216.926 1209,416.387 l -97.74,0 L 1257,216.793 1097.93,0 l 98.84,0 158.55,216.926" style="fill:#176fc1;fill-opacity:1;fill-rule:nonzero;stroke:none"/><path id="path38" d="M 1383.03,178.98 1333.86,111.719 1415.54,0 l 98.82,0 -131.33,178.98" style="fill:#231f20;fill-opacity:1;fill-rule:nonzero;stroke:none"/><text id="text3365" x="1016.833" y="-610.023" transform="scale(1,-1)" xml:space="preserve" style="font-style:normal;font-weight:400;font-size:218.80285645px;line-height:125%;font-family:sans-serif;letter-spacing:0;word-spacing:0;fill:#000;fill-opacity:1;stroke:none;stroke-width:1px;stroke-linecap:butt;stroke-linejoin:miter;stroke-opacity:1"><tspan id="tspan3367" x="1016.833" y="-610.023">BIO</tspan></text></g></g><flowRoot style="font-style:normal;font-weight:400;font-size:20px;line-height:125%;font-family:Sans;letter-spacing:0;word-spacing:0;fill:#000;fill-opacity:1;stroke:none" id="flowRoot3011" transform="translate(-2.1227316,-2.2542205e-6)" xml:space="preserve"><flowRegion id="flowRegion3013"><rect id="rect3015" width="86.958" height="235.557" x="355.536" y="592.194"/></flowRegion><flowPara id="flowPara3017"/></flowRoot><text style="font-style:normal;font-weight:400;font-size:22.25056267px;line-height:125%;font-family:sans-serif;letter-spacing:.02811434px;word-spacing:0;fill:#00b200;fill-opacity:1;stroke:none;stroke-width:1px;stroke-linecap:butt;stroke-linejoin:miter;stroke-opacity:1" id="text3369" x="708.248" y="294.263" xml:space="preserve"><tspan id="tspan3371" x="708.248" y="294.263" style="font-style:normal;font-variant:normal;font-weight:700;font-stretch:normal;font-size:50.06376266px;font-family:Arial;-inkscape-font-specification:'Arial Bold';letter-spacing:8.46709728px;fill:#00b200;fill-opacity:1">BIO</tspan></text></g></svg>